<svg width="0" height="0" class="hidden">
  <symbol xmlns="http://www.w3.org/2000/svg" viewBox="0 0 22 20" id="garbage">
    <path d="M.814 1.63h2.333L6.47 13.67a.812.812 0 00.787.59h10.214a.821.821 0 00.746-.48l3.717-8.56a.836.836 0 00-.068-.78.813.813 0 00-.678-.37H9.9a.82.82 0 000 1.64h10.04l-3.011 6.92H7.867L4.544.6a.808.808 0 00-.787-.6H.814a.815.815 0 000 1.63zM6.484 20a1.85 1.85 0 10-1.845-1.85A1.85 1.85 0 006.484 20zm11.53 0h.135a1.907 1.907 0 10-.135 0z" fill-rule="evenodd"></path>
  </symbol>
  <symbol xmlns="http://www.w3.org/2000/svg" viewBox="0 0 20 20" id="look">
    <path d="M19.45 16.8l-4.588-4.59a8.827 8.827 0 01-2.651 2.65l4.588 4.59a1.874 1.874 0 002.651-2.65zM15 7.5A7.5 7.5 0 107.5 15 7.5 7.5 0 0015 7.5zm-7.5 5.62a5.625 5.625 0 115.625-5.62A5.628 5.628 0 017.5 13.12zM3.125 7.5h1.25A3.135 3.135 0 017.5 4.37V3.12A4.386 4.386 0 003.125 7.5z" fill-rule="evenodd"></path>
  </symbol>
  <symbol xmlns="http://www.w3.org/2000/svg" viewBox="0 0 22 18" id="love">
    <path d="M21.99 5.82a6.208 6.208 0 00-1.849-4.1A5.871 5.871 0 0016 0c-2.311 0-3.948 1.78-4.827 2.74a2.156 2.156 0 01-.156.17l-.083-.09C10.134 1.9 8.458 0 5.996 0a5.873 5.873 0 00-4.139 1.72 6.208 6.208 0 00-1.849 4.1 6.845 6.845 0 001.271 4.34 29.307 29.307 0 004.763 4.75C7.747 16.32 9.992 18 11.007 18c1.032 0 3.269-1.68 4.965-3.09a29.234 29.234 0 004.746-4.75 6.935 6.935 0 001.272-4.34zm-2.376 3.61a27 27 0 01-4.431 4.42c-2.406 2-3.831 2.79-4.172 2.82-.342-.03-1.77-.83-4.188-2.84a26.78 26.78 0 01-4.437-4.4 5.6 5.6 0 01-1.054-3.54 4.807 4.807 0 014.666-4.57c1.863 0 3.216 1.54 3.943 2.37A1.52 1.52 0 0011 4.45a1.731 1.731 0 001.151-.81c.794-.87 2.122-2.32 3.851-2.32a4.807 4.807 0 014.666 4.57 5.528 5.528 0 01-1.054 3.54z" fill-rule="evenodd"></path>
  </symbol>
  <symbol viewBox="0 0 22 9" id="top_price-shape">
    <path fill-rule="evenodd" d="M.3 5.47h16.948l-.1 2.86a.279.279 0 00-.084.2.3.3 0 00.084.21l.172.17a.276.276 0 00.408 0L21.92 4.7a.283.283 0 00.084-.2.307.307 0 00-.084-.21L17.728.08a.3.3 0 00-.408 0l-.172.17a.3.3 0 00-.084.21.3.3 0 00.084.2l.113 2.86H.292a.3.3 0 00-.292.3v1.37a.288.288 0 00.3.28z"></path>
  </symbol>
</svg>