<svg width="0" height="0" class="hidden">
  <symbol xmlns="http://www.w3.org/2000/svg" viewBox="0 0 6.1 10.97" id="arrow">
    <path d="M.55 10.97a.53.53 0 01-.41-.19.6.6 0 01-.15-.4.631.631 0 01.17-.43l4.55-4.47L.16 1A.607.607 0 01-.01.58.629.629 0 01.14.17a.559.559 0 01.8-.02l4.98 4.9.01.01a.657.657 0 01.12.17.7.7 0 01.05.25.742.742 0 01-.05.25.61.61 0 01-.12.16c0 .01-.01.01-.01.02l-4.98 4.9a.589.589 0 01-.39.16z" fill-rule="evenodd"></path>
  </symbol>
  <symbol xmlns="http://www.w3.org/2000/svg" viewBox="0 0 24 24" id="autor">
    <path d="M12 12a6 6 0 10-6-6 6.006 6.006 0 006 6zm0-10a4 4 0 11-4 4 4 4 0 014-4zm0 12a9.01 9.01 0 00-9 9 1 1 0 002 0 7 7 0 0114 0 1 1 0 002 0 9.01 9.01 0 00-9-9z"></path>
  </symbol>
  <symbol xmlns="http://www.w3.org/2000/svg" viewBox="0 0 24 24" id="time">
    <path d="M12 0a12 12 0 1012 12A12.013 12.013 0 0012 0zm0 22a10 10 0 1110-10 10.011 10.011 0 01-10 10z"></path>
    <path d="M12 6a1 1 0 00-1 1v4.325l-3.371 2.112a1 1 0 001.062 1.7l3.84-2.4a1 1 0 00.469-.858V7a1 1 0 00-1-1z"></path>
  </symbol>
</svg>